<svg xmlns="http://www.w3.org/2000/svg" viewBox="0 0 60 30">
  <rect width="60" height="30" fill="#012169"/>
  <path d="M0,0 H24 V12.5 H0 Z" fill="#012169"/>
  <path d="M0,0 L24,12.5 M24,0 L0,12.5" stroke="#fff" stroke-width="2.5"/>
  <path d="M0,0 L24,12.5 M24,0 L0,12.5" stroke="#C8102E" stroke-width="1.5"/>
  <path d="M12,0 V12.5 M0,6.25 H24" stroke="#fff" stroke-width="4"/>
  <path d="M12,0 V12.5 M0,6.25 H24" stroke="#C8102E" stroke-width="2.5"/>
  <polygon points="20,22 20.7,24 18.8,22.8 21.2,22.8 19.3,24" fill="#fff"/>
  <polygon points="50,8 50.5,9.5 48.9,8.7 51.1,8.7 49.5,9.5" fill="#fff"/>
  <polygon points="45,18 45.5,19.5 43.9,18.7 46.1,18.7 44.5,19.5" fill="#fff"/>
  <polygon points="50,24 50.5,25.5 48.9,24.7 51.1,24.7 49.5,25.5" fill="#fff"/>
  <polygon points="55,15 55.5,16.5 53.9,15.7 56.1,15.7 54.5,16.5" fill="#fff"/>
</svg>
