<svg xmlns="http://www.w3.org/2000/svg" viewBox="0 0 60 30">
  <rect width="60" height="30" fill="#012169"/>
  <path d="M0,0 H24 V12 H0 Z" fill="#012169"/>
  <path d="M0,0 L24,12 M24,0 L0,12" stroke="#fff" stroke-width="2.5"/>
  <path d="M0,0 L24,12 M24,0 L0,12" stroke="#C8102E" stroke-width="1.5"/>
  <path d="M12,0 V12 M0,6 H24" stroke="#fff" stroke-width="4"/>
  <path d="M12,0 V12 M0,6 H24" stroke="#C8102E" stroke-width="2.5"/>
  <polygon points="45,8 45.7,10 43.8,9 46.2,9 44.3,10" fill="#CC142B"/>
  <polygon points="50,14 50.5,15.5 49,14.7 51,14.7 49.5,15.5" fill="#CC142B"/>
  <polygon points="48,22 48.5,23.5 47,22.7 49,22.7 47.5,23.5" fill="#CC142B"/>
  <polygon points="42,18 42.5,19.5 41,18.7 43,18.7 41.5,19.5" fill="#CC142B"/>
</svg>
