<svg xmlns="http://www.w3.org/2000/svg" viewBox="0 0 100 100">
  <ellipse cx="50" cy="55" rx="35" ry="12" fill="#2E7D32"/>
  <ellipse cx="50" cy="58" rx="30" ry="8" fill="#4CAF50"/>
  <ellipse cx="20" cy="50" rx="15" ry="8" fill="#2E7D32"/>
  <path d="M8,46 L12,44 L16,46 L20,44 L24,46 L28,44 L32,46" stroke="#fff" stroke-width="1" fill="none"/>
  <path d="M8,54 L12,56 L16,54 L20,56 L24,54 L28,56 L32,54" stroke="#fff" stroke-width="1" fill="none"/>
  <circle cx="15" cy="46" r="3" fill="#fff"/>
  <circle cx="25" cy="46" r="3" fill="#fff"/>
  <circle cx="15" cy="46" r="1.5" fill="#333"/>
  <circle cx="25" cy="46" r="1.5" fill="#333"/>
  <path d="M80,52 Q90,48 95,52 Q90,56 80,55" fill="#2E7D32"/>
  <rect x="35" y="65" width="5" height="8" rx="2" fill="#1B5E20"/>
  <rect x="48" y="65" width="5" height="8" rx="2" fill="#1B5E20"/>
  <rect x="60" y="65" width="5" height="8" rx="2" fill="#1B5E20"/>
</svg>
