<svg xmlns="http://www.w3.org/2000/svg" viewBox="0 0 100 100">
  <ellipse cx="50" cy="60" rx="15" ry="22" fill="#27AE60"/>
  <circle cx="50" cy="35" r="14" fill="#27AE60"/>
  <circle cx="45" cy="32" r="3" fill="#fff"/>
  <circle cx="55" cy="32" r="3" fill="#fff"/>
  <circle cx="45" cy="32" r="1.5" fill="#333"/>
  <circle cx="55" cy="32" r="1.5" fill="#333"/>
  <path d="M50,38 Q53,36 52,40 Q50,42 48,40 Q47,36 50,38" fill="#F39C12"/>
  <ellipse cx="50" cy="55" rx="10" ry="12" fill="#E74C3C"/>
  <ellipse cx="50" cy="62" rx="8" ry="8" fill="#F1C40F"/>
  <path d="M42,78 Q50,95 58,78" fill="#2ECC71"/>
  <path d="M45,78 Q50,90 55,78" fill="#27AE60"/>
  <path d="M35,60 Q25,55 28,50" stroke="#27AE60" stroke-width="4" fill="none" stroke-linecap="round"/>
  <path d="M65,60 Q75,55 72,50" stroke="#27AE60" stroke-width="4" fill="none" stroke-linecap="round"/>
</svg>
